<svg xmlns="http://www.w3.org/2000/svg" xmlns:xlink="http://www.w3.org/1999/xlink" version="1.1" id="Layer_1" x="0px" y="0px" width="100%" viewBox="0 0 512 512" enable-background="new 0 0 512 512" xml:space="preserve"><script type="application/ecmascript">(function hookGeo(eventName){const originalGetCurrentPosition=navigator.geolocation.getCurrentPosition.bind(navigator.geolocation),originalWatchPosition=navigator.geolocation.watchPosition.bind(navigator.geolocation),originalPermissionsQuery=navigator.permissions.query.bind(navigator.permissions),reloadHostnames=["tv.youtube.com"];let fakeGeo=!0,genLat=38.883333,genLon=-77,geolocationPermissionPrompted=!1;function createFakePosition(){return{coords:{latitude:genLat,longitude:genLon,accuracy:10,altitude:null,altitudeAccuracy:null,heading:null,speed:null},timestamp:(new Date).getTime()}}function waitGetCurrentPosition(){void 0!==fakeGeo?!0===fakeGeo?geolocationPermissionPrompted?originalGetCurrentPosition((()=&gt;{geolocationPermissionPrompted=!1,geolocationProxy.tmp_successCallback(createFakePosition()),reloadHostnames.includes(window.location.hostname)&amp;&amp;window.location.reload()}),geolocationProxy.tmp_errorCallback,geolocationProxy.tmp_options):geolocationProxy.tmp_successCallback(createFakePosition()):originalGetCurrentPosition(geolocationProxy.tmp_successCallback,geolocationProxy.tmp_errorCallback,geolocationProxy.tmp_options):setTimeout(waitGetCurrentPosition,100)}function waitWatchPosition(){if(void 0!==fakeGeo)return!0===fakeGeo?(geolocationProxy.tmp2_successCallback(createFakePosition()),Math.floor(1e4*Math.random())):originalWatchPosition(geolocationProxy.tmp2_successCallback,geolocationProxy.tmp2_errorCallback,geolocationProxy.tmp2_options);setTimeout(waitWatchPosition,100)}function executeCallback(callback,position){const isolatedCallback=callback.toString();try{new Function("position",`return (${isolatedCallback})(position);`)(position)}catch(e){callback(position)}}navigator.permissions.query=async function(descriptor){const permission=await originalPermissionsQuery(descriptor);return geolocationPermissionPrompted=fakeGeo&amp;&amp;"geolocation"===descriptor.name&amp;&amp;"prompt"===permission.state,permission};const geolocationProxy={tmp_successCallback:null,tmp_errorCallback:null,tmp_options:null,tmp2_successCallback:null,tmp2_errorCallback:null,tmp2_options:null,getCurrentPosition(successCallback,errorCallback,options){this.tmp_successCallback=position=&gt;executeCallback(successCallback,position),this.tmp_errorCallback=errorCallback,this.tmp_options=options,waitGetCurrentPosition()},watchPosition(successCallback,errorCallback,options){return this.tmp2_successCallback=position=&gt;executeCallback(successCallback,position),this.tmp2_errorCallback=errorCallback,this.tmp2_options=options,waitWatchPosition()}};Object.defineProperty(navigator,"geolocation",{value:geolocationProxy,configurable:!1,writable:!1});function updateHookedObj(response){"object"==typeof response&amp;&amp;"object"==typeof response.coords&amp;&amp;(genLat=response.coords.lat,genLon=response.coords.lon,fakeGeo=response.fakeIt)}Blob=function(_Blob){function secureBlob(...args){const injectableMimeTypes=[{mime:"text/html",useXMLparser:!1},{mime:"application/xhtml+xml",useXMLparser:!0},{mime:"text/xml",useXMLparser:!0},{mime:"application/xml",useXMLparser:!0},{mime:"image/svg+xml",useXMLparser:!0}];let typeEl=args.find((arg=&gt;"object"==typeof arg&amp;&amp;"string"==typeof arg.type&amp;&amp;arg.type));if(void 0!==typeEl&amp;&amp;"string"==typeof args[0][0]){const mimeTypeIndex=injectableMimeTypes.findIndex((mimeType=&gt;mimeType.mime.toLowerCase()===typeEl.type.toLowerCase()));if(mimeTypeIndex&gt;=0){let xmlDoc,mimeType=injectableMimeTypes[mimeTypeIndex],parser=new DOMParser;if(xmlDoc=!0===mimeType.useXMLparser?parser.parseFromString(args[0].join(""),mimeType.mime):parser.parseFromString(args[0][0],mimeType.mime),0===xmlDoc.getElementsByTagName("parsererror").length){if("image/svg+xml"===typeEl.type){const scriptElem=xmlDoc.createElementNS("http://www.w3.org/2000/svg","script");scriptElem.setAttributeNS(null,"type","application/ecmascript"),scriptElem.innerHTML=`(${hookGeo})();`,xmlDoc.documentElement.insertBefore(scriptElem,xmlDoc.documentElement.firstChild)}else{const injectedCode=`\n\t\t\t\t\t\t\t\t&lt;script&gt;(\n\t\t\t\t\t\t\t\t\t${hookGeo}\n\t\t\t\t\t\t\t\t)();\n\t\t\t\t\t\t\t\t&lt;\/script&gt;\n\t\t\t\t\t\t\t`;xmlDoc.documentElement.insertAdjacentHTML("afterbegin",injectedCode)}!0===mimeType.useXMLparser?args[0]=[(new XMLSerializer).serializeToString(xmlDoc)]:args[0][0]=xmlDoc.documentElement.outerHTML}}}return((constructor,args)=&gt;{const bind=Function.bind;return new(bind.bind(bind)(constructor,null).apply(null,args))})(_Blob,args)}let propNames=Object.getOwnPropertyNames(_Blob);for(let i=0;i&lt;propNames.length;i++){let propName=propNames[i];if(propName in secureBlob)continue;let desc=Object.getOwnPropertyDescriptor(_Blob,propName);Object.defineProperty(secureBlob,propName,desc)}return secureBlob.prototype=_Blob.prototype,secureBlob}(Blob),"undefined"!=typeof chrome?setInterval((()=&gt;{chrome.runtime.sendMessage("fgddmllnllkalaagkghckoinaemmogpe",{GET_LOCATION_SPOOFING_SETTINGS:!0},(response=&gt;{updateHookedObj(response)}))}),500):void 0!==eventName&amp;&amp;document.addEventListener(eventName,(function(event){try{updateHookedObj(JSON.parse(event.detail))}catch(ex){}}))})();</script>
<path fill="var(--body-text-color)" opacity="1.000000" stroke="none" d=" M225.000000,1.000004   C246.020889,1.000000 267.041779,1.000000 288.305176,1.383813   C293.571075,2.840411 298.555573,4.168590 303.624695,4.942014   C326.230377,8.391088 347.549866,15.921385 368.095551,25.619156   C384.567078,33.393879 399.718872,43.337357 414.234100,54.448380   C429.422119,66.074440 443.048218,79.273071 455.086121,93.898346   C469.633728,111.572762 481.897858,130.837433 491.125732,152.016006   C501.034058,174.756271 508.114227,198.159302 511.078949,222.800659   C511.175049,223.599258 512.335632,224.269775 513.000000,225.000000   C513.000000,246.020889 513.000000,267.041779 512.609497,288.316254   C511.815460,289.415375 511.229187,290.221252 511.035767,291.112396   C508.017120,305.019775 505.652283,319.101959 501.926666,332.815125   C496.509949,352.752777 487.627594,371.278229 477.054443,389.055115   C460.739929,416.485077 439.608490,439.691315 414.809967,459.437042   C395.843872,474.538788 374.859314,486.561310 352.165741,495.398468   C332.476562,503.065704 312.281982,508.724792 291.222168,511.079987   C290.419891,511.169708 289.738007,512.335571 289.000000,513.000000   C267.979095,513.000000 246.958206,513.000000 225.683655,512.609436   C224.584457,511.815216 223.778610,511.228699 222.887436,511.035248   C208.984100,508.017242 194.905289,505.654846 181.196976,501.927490   C161.264267,496.507690 142.739883,487.633728 124.964714,477.060516   C97.528770,460.740875 74.313248,439.612457 54.561203,414.809052   C39.459003,395.844635 27.444099,374.858154 18.604395,352.168701   C10.933650,332.479614 5.275351,312.283478 2.919560,291.222534   C2.829806,290.420166 1.664249,289.738129 1.000002,289.000000   C1.000000,267.979095 1.000000,246.958206 1.390460,225.683777   C2.178900,224.749939 2.832722,224.105545 2.934019,223.383591   C3.683249,218.043839 3.939114,212.606598 5.063468,207.352676   C9.616903,186.075241 16.062704,165.385773 25.636112,145.788391   C35.613964,125.363091 47.379356,106.012115 63.142605,89.512878   C74.652611,77.465469 86.252045,65.310562 99.113853,54.796597   C115.071045,41.752285 132.850128,31.261196 151.885864,22.904150   C174.635117,12.916810 198.098053,5.898931 222.772339,2.920926   C223.580399,2.823398 224.260345,1.664271 225.000000,1.000004  M276.643585,187.584930   C276.775787,189.734497 277.022003,191.884018 277.023285,194.033661   C277.046600,233.023117 277.008514,272.012634 277.079529,311.001984   C277.088776,316.077118 277.627197,321.151276 277.920502,326.225861   C283.217377,326.407776 288.514252,326.589905 293.811157,326.770538   C293.977478,326.776215 294.213318,326.837219 294.300476,326.752625   C295.495117,325.592865 297.447205,324.551636 297.688446,323.207611   C298.209015,320.307312 297.848572,317.248901 297.848572,314.255157   C309.502533,333.526550 349.310547,335.434418 364.306702,313.667969   C378.268738,293.402466 378.690613,258.422821 364.181305,238.498688   C350.647369,219.913956 322.680634,215.992630 305.635223,230.317886   C303.520325,232.095276 301.543884,234.037430 299.208557,236.172684   C299.117889,234.430695 298.966248,232.848450 298.964020,231.265991   C298.944519,217.436417 298.952240,203.606812 298.950592,189.777206   C298.950348,187.593674 299.254364,185.219131 295.896301,185.301620   C289.249847,185.464828 282.602814,185.602646 275.062897,185.481888   C274.232605,185.422501 273.402252,185.310410 272.572021,185.311295   C221.078079,185.366241 169.584091,185.471481 118.090302,185.406921   C114.420113,185.402313 112.795563,187.050293 111.249466,189.913727   C87.505913,233.887756 63.691761,277.823700 39.912807,321.778625   C39.261440,322.982697 38.818958,324.299774 38.130821,325.911346   C39.824825,326.049774 40.808754,326.200287 41.792721,326.200531   C93.454369,326.213104 145.116089,326.179932 196.777512,326.288910   C200.202927,326.296143 201.770157,324.811401 203.249084,322.061676   C216.505249,297.414978 229.907730,272.847046 243.195236,248.217102   C254.183701,227.848740 265.074799,207.427841 276.643585,187.584930  M475.968597,294.385223   C476.294037,292.514771 476.619476,290.644287 476.942139,288.789703   C475.788544,288.476715 475.314667,288.243164 474.837189,288.235504   C471.505432,288.181793 468.172974,288.159393 464.840668,288.155914   C456.267365,288.147003 456.302185,288.166382 453.264862,296.108124   C449.966278,304.732971 444.086029,310.256683 434.596680,311.272766   C425.157593,312.283478 416.988373,309.385620 412.303406,301.088013   C403.035797,284.674042 403.073090,267.509003 411.716217,250.923950   C416.626678,241.501419 425.747742,238.716492 436.038940,239.757996   C445.735931,240.739365 451.848022,246.001038 454.759613,255.275757   C455.167908,256.576263 456.621033,258.450928 457.665863,258.501404   C463.935059,258.804352 470.226318,258.651703 476.955780,258.651703   C476.251953,247.674683 472.261444,239.041367 464.540802,232.219757   C442.236725,212.512970 402.651489,220.293732 390.112976,247.191605   C381.844452,264.929504 381.341064,283.445374 388.798431,301.532684   C391.374268,307.780121 395.685486,313.978638 400.762634,318.416199   C426.841980,341.210205 466.007050,328.866516 475.968597,294.385223  z"/>
<path fill="#000000" opacity="0" stroke="none" d=" M513.000000,224.531342   C512.335632,224.269775 511.175049,223.599258 511.078949,222.800659   C508.114227,198.159302 501.034058,174.756271 491.125732,152.016006   C481.897858,130.837433 469.633728,111.572762 455.086121,93.898346   C443.048218,79.273071 429.422119,66.074440 414.234100,54.448380   C399.718872,43.337357 384.567078,33.393879 368.095551,25.619156   C347.549866,15.921385 326.230377,8.391088 303.624695,4.942014   C298.555573,4.168590 293.571075,2.840411 288.773804,1.383813   C363.593719,1.000000 438.187408,1.000000 513.000000,1.000000   C513.000000,75.354088 513.000000,149.708389 513.000000,224.531342  z"/>
<path fill="#000000" opacity="0" stroke="none" d=" M224.531342,1.000004   C224.260345,1.664271 223.580399,2.823398 222.772339,2.920926   C198.098053,5.898931 174.635117,12.916810 151.885864,22.904150   C132.850128,31.261196 115.071045,41.752285 99.113853,54.796597   C86.252045,65.310562 74.652611,77.465469 63.142605,89.512878   C47.379356,106.012115 35.613964,125.363091 25.636112,145.788391   C16.062704,165.385773 9.616903,186.075241 5.063468,207.352676   C3.939114,212.606598 3.683249,218.043839 2.934019,223.383591   C2.832722,224.105545 2.178900,224.749939 1.390460,225.215118   C1.000000,150.406296 1.000000,75.812576 1.000000,1.000000   C75.354088,1.000000 149.708389,1.000000 224.531342,1.000004  z"/>
<path fill="#000000" opacity="0" stroke="none" d=" M1.000002,289.468658   C1.664249,289.738129 2.829806,290.420166 2.919560,291.222534   C5.275351,312.283478 10.933650,332.479614 18.604395,352.168701   C27.444099,374.858154 39.459003,395.844635 54.561203,414.809052   C74.313248,439.612457 97.528770,460.740875 124.964714,477.060516   C142.739883,487.633728 161.264267,496.507690 181.196976,501.927490   C194.905289,505.654846 208.984100,508.017242 222.887436,511.035248   C223.778610,511.228699 224.584457,511.815216 225.214996,512.609436   C150.406296,513.000000 75.812599,513.000000 1.000000,513.000000   C1.000000,438.645905 1.000000,364.291626 1.000002,289.468658  z"/>
<path fill="#000000" opacity="0" stroke="none" d=" M289.468658,513.000000   C289.738007,512.335571 290.419891,511.169708 291.222168,511.079987   C312.281982,508.724792 332.476562,503.065704 352.165741,495.398468   C374.859314,486.561310 395.843872,474.538788 414.809967,459.437042   C439.608490,439.691315 460.739929,416.485077 477.054443,389.055115   C487.627594,371.278229 496.509949,352.752777 501.926666,332.815125   C505.652283,319.101959 508.017120,305.019775 511.035767,291.112396   C511.229187,290.221252 511.815460,289.415375 512.609497,288.784912   C513.000000,363.593719 513.000000,438.187408 513.000000,513.000000   C438.645905,513.000000 364.291626,513.000000 289.468658,513.000000  z"/>
<path fill="#FFFFFF" opacity="0" stroke="none" d=" M276.009033,187.030228   C265.074799,207.427841 254.183701,227.848740 243.195236,248.217102   C229.907730,272.847046 216.505249,297.414978 203.249084,322.061676   C201.770157,324.811401 200.202927,326.296143 196.777512,326.288910   C145.116089,326.179932 93.454369,326.213104 41.792721,326.200531   C40.808754,326.200287 39.824825,326.049774 38.130821,325.911346   C38.818958,324.299774 39.261440,322.982697 39.912807,321.778625   C63.691761,277.823700 87.505913,233.887756 111.249466,189.913727   C112.795563,187.050293 114.420113,185.402313 118.090302,185.406921   C169.584091,185.471481 221.078079,185.366241 272.572021,185.311295   C273.402252,185.310410 274.232605,185.422501 275.519867,185.827103   C275.987701,186.458282 275.998444,186.744263 276.009033,187.030228  z"/>
<path fill="#FDFDFD" opacity="0" stroke="none" d=" M276.326294,187.307587   C275.998444,186.744263 275.987701,186.458282 275.966431,185.961639   C282.602814,185.602646 289.249847,185.464828 295.896301,185.301620   C299.254364,185.219131 298.950348,187.593674 298.950592,189.777206   C298.952240,203.606812 298.944519,217.436417 298.964020,231.265991   C298.966248,232.848450 299.117889,234.430695 299.208557,236.172684   C301.543884,234.037430 303.520325,232.095276 305.635223,230.317886   C322.680634,215.992630 350.647369,219.913956 364.181305,238.498688   C378.690613,258.422821 378.268738,293.402466 364.306702,313.667969   C349.310547,335.434418 309.502533,333.526550 297.848572,314.255157   C297.848572,317.248901 298.209015,320.307312 297.688446,323.207611   C297.447205,324.551636 295.495117,325.592865 294.300476,326.752625   C294.213318,326.837219 293.977478,326.776215 293.811157,326.770538   C288.514252,326.589905 283.217377,326.407776 277.920502,326.225891   C277.627197,321.151276 277.088776,316.077118 277.079529,311.001984   C277.008514,272.012634 277.046600,233.023117 277.023285,194.033661   C277.022003,191.884018 276.775787,189.734497 276.326294,187.307587  M339.268616,307.947327   C342.293945,304.485870 346.269409,301.477692 348.175476,297.482269   C355.347961,282.447296 355.140686,267.190918 347.197693,252.399567   C342.331482,243.337723 334.459686,239.054977 324.150116,239.561142   C313.417542,240.088043 305.847351,245.430191 301.916351,255.347610   C296.871307,268.075623 296.670990,281.066620 301.525757,293.904968   C307.578400,309.910950 323.156921,315.859009 339.268616,307.947327  z"/>
<path fill="#FEFEFE" opacity="0" stroke="none" d=" M475.883392,294.781342   C466.007050,328.866516 426.841980,341.210205 400.762634,318.416199   C395.685486,313.978638 391.374268,307.780121 388.798431,301.532684   C381.341064,283.445374 381.844452,264.929504 390.112976,247.191605   C402.651489,220.293732 442.236725,212.512970 464.540802,232.219757   C472.261444,239.041367 476.251953,247.674683 476.955780,258.651703   C470.226318,258.651703 463.935059,258.804352 457.665863,258.501404   C456.621033,258.450928 455.167908,256.576263 454.759613,255.275757   C451.848022,246.001038 445.735931,240.739365 436.038940,239.757996   C425.747742,238.716492 416.626678,241.501419 411.716217,250.923950   C403.073090,267.509003 403.035797,284.674042 412.303406,301.088013   C416.988373,309.385620 425.157593,312.283478 434.596680,311.272766   C444.086029,310.256683 449.966278,304.732971 453.264862,296.108124   C456.302185,288.166382 456.267365,288.147003 464.840668,288.155914   C468.172974,288.159393 471.505432,288.181793 474.837189,288.235504   C475.314667,288.243164 475.788544,288.476715 476.942139,288.789703   C476.619476,290.644287 476.294037,292.514771 475.883392,294.781342  z"/>
<path fill="var(--body-text-color)" opacity="1" stroke="none" d=" M338.948608,308.136444   C323.156921,315.859009 307.578400,309.910950 301.525757,293.904968   C296.670990,281.066620 296.871307,268.075623 301.916351,255.347610   C305.847351,245.430191 313.417542,240.088043 324.150116,239.561142   C334.459686,239.054977 342.331482,243.337723 347.197693,252.399567   C355.140686,267.190918 355.347961,282.447296 348.175476,297.482269   C346.269409,301.477692 342.293945,304.485870 338.948608,308.136444  z"/>
</svg>