<?xml version="1.0" encoding="UTF-8"?>
<svg id="Layer_1" data-name="Layer 1" xmlns="http://www.w3.org/2000/svg" xmlns:xlink="http://www.w3.org/1999/xlink" viewBox="0 0 522.0000305176 522">
  <defs>
    <style>
      .cls-1 {
        clip-path: url(#clippath-3);
      }

      .cls-1, .cls-2, .cls-3, .cls-4 {
        fill: none;
      }

      .cls-1, .cls-2, .cls-4 {
        clip-rule: evenodd;
      }

      .cls-5 {
        clip-path: url(#clippath-6);
      }

      .cls-6 {
        clip-path: url(#clippath-4);
      }

      .cls-7 {
        fill: #fff;
      }

      .cls-2 {
        clip-path: url(#clippath-5);
      }

      .cls-8 {
        clip-path: url(#clippath-2);
      }

      .cls-4 {
        clip-path: url(#clippath-1);
      }

      .cls-9 {
        clip-path: url(#clippath);
      }
    </style>
    <clipPath id="clippath">
      <rect class="cls-3" x="5.0000305176" y="5" width="512" height="512"/>
    </clipPath>
    <clipPath id="clippath-1">
      <rect class="cls-3" x="5.0000305176" y="5" width="512" height="512"/>
    </clipPath>
    <clipPath id="clippath-2">
      <path class="cls-4" d="M325.8569946289,244.4044189453c-18.3492736816,0-27.7252197266,14.4421386719-27.7252197266,36.1999359131,0,20.5657348633,10.1381530762,36.0036468506,27.7252197266,36.0036468506,19.8894958496,0,27.3455505371-18.2016906738,27.3455505371-36.0036468506-.0143737793-18.5899963379-9.384552002-36.1999359131-27.3512878418-36.1999359131M277.100402832,190.4082641602h21.7964782715v52.2152099609h.3854370117c5.9272766113-9.8874206543,18.3549804688-16.0209960938,29.445892334-16.0209960938,31.1623840332,0,46.2736206055,24.5344543457,46.2736206055,54.4044799805,0,27.4844970703-13.3833007812,53.397277832-42.6430053711,53.397277832-13.384765625,0-27.7252197266-3.3540802002-34.2284851074-16.8090667725h-.3782043457v14.0510101318h-20.6531677246v-141.2350463867l.0014343262-.0028686523"/>
    </clipPath>
    <clipPath id="clippath-3">
      <rect class="cls-3" x="5.0000305176" y="5" width="512" height="512"/>
    </clipPath>
    <clipPath id="clippath-4">
      <path class="cls-1" d="M455.3893127441,263.5975646973c-1.7221374512-12.4620666504-10.5149230957-19.1917419434-22.5615234375-19.1917419434-11.2872314453,0-27.1535644531,6.1350708008-27.1535644531,37.1914215088,0,17.012512207,7.2640991211,35.0150604248,26.196472168,35.0150604248,12.6182861328,0,21.4110412598-8.7140045166,23.5186157227-23.3510131836h21.7965087891c-4.0159912109,26.5059356689-19.8837585449,41.1429443359-45.3151245117,41.1429443359-30.9775390625,0-47.994354248-22.7420959473-47.994354248-52.8069915771,0-30.855758667,16.2531433105-54.9890594482,48.7594604492-54.9890594482,22.9441223145,0,42.453918457,11.8674926758,44.5500183105,36.990814209h-21.7606811523l-.0358276367-.0014343262"/>
    </clipPath>
    <clipPath id="clippath-5">
      <rect class="cls-3" x="5.0000305176" y="5" width="512" height="512"/>
    </clipPath>
    <clipPath id="clippath-6">
      <polyline class="cls-2" points="200.8951416016 331.3381347656 37.4079589844 331.3381347656 113.7536621094 190.4082641602 277.2422485352 190.4082641602 200.8951416016 331.3381347656"/>
    </clipPath>
  </defs>
  <g class="cls-9">
    <rect width="522.0000305176" height="522"/>
  </g>
  <g class="cls-8">
    <rect class="cls-7" x="272.0989990234" y="185.4082336426" width="107.9028625488" height="153.9960021973"/>
  </g>
  <g class="cls-6">
    <rect class="cls-7" x="378.8763122559" y="221.6081542969" width="103.3095092773" height="117.796081543"/>
  </g>
  <g class="cls-5">
    <rect class="cls-7" x="32.407989502" y="185.4082336426" width="249.8342590332" height="150.929901123"/>
  </g>
</svg>